<?xml version="1.0" encoding="UTF-8"?>
<svg id="Layer_1" xmlns="http://www.w3.org/2000/svg" viewBox="0 0 800 500">
  <defs>
    <style>
      .cls-1 {
        fill: #fff;
      }
    </style>
  </defs>
  <path class="cls-1" d="M700,150c0-23.16-5.25-45.09-14.62-64.67,9.03-9.05,14.62-21.54,14.62-35.33,0-27.62-22.39-50-50-50h-100c-38.43,0-73.46,14.47-100,38.23C423.46,14.47,388.42,0,350,0s-73.46,14.45-100,38.21C223.46,14.45,188.42,0,150,0,126.84,0,104.91,5.25,85.33,14.62,76.29,5.59,63.8,0,50,0,22.39,0,0,22.39,0,50v200c0,27.61,22.39,50,50,50s50-22.38,50-50v-100c0-27.57,22.43-50,50-50s50,22.43,50,50v100c0,27.61,22.39,50,50,50s50-22.38,50-50v-100c0-27.57,22.43-50,50-50s50,22.43,50,50h0c0,82.84,67.16,150,150,150,27.57,0,50,22.43,50,50s-22.43,50-50,50-50-22.43-50-50-22.39-50-50-50-50,22.38-50,50c0,82.84,67.16,150,150,150s150-67.16,150-150c0-38.42-14.45-73.46-38.21-100,23.75-26.54,38.21-61.58,38.21-100ZM550,200c-27.57,0-50-22.43-50-50s22.43-50,50-50,50,22.43,50,50-22.43,50-50,50ZM800,250c0,27.62-22.39,50-50,50s-50-22.38-50-50,22.39-50,50-50,50,22.39,50,50Z"/>
</svg>